HIERARCHY
ROOT Hips
{
	OFFSET 0.00000 0.00000 0.00000
	CHANNELS 6 Xposition Yposition Zposition Yrotation Zrotation Xrotation 
	JOINT Lumbar
	{
		OFFSET 0 0 0
		CHANNELS 3 Zrotation Xrotation Yrotation
		JOINT Neck
		{
			OFFSET 0.00 0.2701 0.00
			CHANNELS 3 Zrotation Xrotation Yrotation
			End Site
			{
				OFFSET 0.00 0.1379 0.00
			}
		}
		JOINT RightShoulder
		{
			OFFSET 0.0119 0.2289 0.1181
			CHANNELS 3 Zrotation Xrotation Yrotation
			JOINT RightElbow
			{
				OFFSET 0.00 -0.1475 0.00
				CHANNELS 2 Zrotation Yrotation
				JOINT RightWrist
				{
					OFFSET 0.00 -0.1605 0.00
					CHANNELS 2 Zrotation Xrotation
					End Site
					{
						OFFSET 0.0040 -0.1068 0.0006
					}
				}
			}
		}
		JOINT LeftShoulder
		{
			OFFSET 0.0119 0.2289 -0.1181
			CHANNELS 3 Zrotation Xrotation Yrotation
			JOINT LeftElbow
			{
				OFFSET 0.00 -0.1475 0.00
				CHANNELS 2 Zrotation Yrotation
				JOINT LeftWrist
				{
					OFFSET 0.00 -0.1605 0.00
					CHANNELS 2 Zrotation Xrotation
					End Site
					{
						OFFSET 0.0040 -0.1068 -0.0006
					}
				}
			}
		}
	}
	JOINT RightHip
	{
		OFFSET 0.0316 -0.0424 0.0458
		CHANNELS 3 Zrotation Xrotation Yrotation
		JOINT RightKnee
		{
			OFFSET 0.00 -0.2438 0.00
			CHANNELS 1 Zrotation
			JOINT RightAnkle
			{
				OFFSET 0.00 -0.2449 0.00
				CHANNELS 3 Zrotation Xrotation Yrotation
				End Site
				{
					OFFSET 0.1237 -0.0542 0.0051
				}
			}
		}
	}
	JOINT LeftHip
	{
		OFFSET 0.0316 -0.0424 -0.0458
		CHANNELS 3 Zrotation Xrotation Yrotation
		JOINT LeftKnee
		{
			OFFSET 0.00 -0.2438 0.00
			CHANNELS 1 Zrotation
			JOINT LeftAnkle
			{
				OFFSET 0.00 -0.2449 0.00
				CHANNELS 3 Zrotation Xrotation Yrotation
				End Site
				{
					OFFSET 0.1237 -0.0542 -0.0051
				}
			}
		}
	}
}
MOTION
Frames: 22
Frame Time: 0.02
0.0003 6e-05 6e-05 15.94039 -33.66816 -3.0532 56.02819 1.94809 2.36123 -4.5827 -6.54512 -1.09486 130.07511 -72.52311 -85.27914 7.84898 63.28769 2.5786 -8.43478 155.17127 74.66278 80.9712 8.33127 -65.07299 5.40176 9.97291 49.14072 -3.95113 -0.26963 -18.96866 -8.27029 -4.14447 -4.35279 52.47003 8.2177 1.1351 -24.10033 -9.25531 4.06507 4.36272
0.00018 4e-05 0.00012 15.98119 -33.64437 -3.03827 56.02068 1.87605 2.3549 -4.68202 -6.25142 -1.09817 129.88721 -72.52024 -85.4279 7.85914 63.37503 2.59156 -8.40117 155.21907 74.62463 81.19066 8.33374 -65.08457 5.48225 9.91853 49.11559 -4.06859 -0.9009 -18.97345 -8.22174 -4.10276 -4.3284 52.46055 8.26142 1.39913 -24.1014 -9.23254 4.04672 4.3512
6e-05 2e-05 0.00017 16.02186 -33.62061 -3.02337 56.01315 1.80418 2.34861 -4.78114 -5.95841 -1.10148 129.69952 -72.51742 -85.57629 7.86917 63.4621 2.60436 -8.36764 155.26664 74.58666 81.40948 8.33621 -65.09621 5.56246 9.86435 49.09053 -4.18579 -1.53063 -18.97825 -8.17331 -4.06115 -4.30407 52.45107 8.3051 1.66288 -24.10247 -9.20979 4.02839 4.3397
-6e-05 -0 0.00022 16.06253 -33.59689 -3.00848 56.00565 1.73235 2.3423 -4.88017 -5.66558 -1.10478 129.51222 -72.51455 -85.72461 7.87929 63.54917 2.61726 -8.33414 155.31434 74.54862 81.62823 8.33869 -65.10766 5.64273 9.81014 49.06548 -4.3029 -2.16003 -18.98303 -8.12491 -4.01957 -4.27976 52.44161 8.34869 1.92617 -24.10354 -9.18708 4.01009 4.32821
-0.00018 -2e-05 0.00028 16.10333 -33.57314 -2.99358 55.99818 1.66035 2.33595 -4.97936 -5.37214 -1.10809 129.32466 -72.51166 -85.87327 7.88956 63.63653 2.63036 -8.30055 155.36212 74.51045 81.84773 8.34112 -65.1193 5.72321 9.75572 49.04038 -4.42027 -2.79081 -18.98782 -8.0764 -3.9779 -4.2554 52.43217 8.3923 2.18957 -24.10461 -9.16435 3.99178 4.31672
-0.00029 -4e-05 0.00033 16.14373 -33.54938 -2.97866 55.99055 1.58875 2.32977 -5.07833 -5.08006 -1.1114 129.13657 -72.509 -86.02106 7.89907 63.723 2.64253 -8.26713 155.40918 74.47292 82.06515 8.34368 -65.13111 5.80278 9.70203 49.01537 -4.53709 -3.41829 -18.99261 -8.02815 -3.93642 -4.23114 52.4226 8.43612 2.45402 -24.10568 -9.14157 3.97343 4.3052
-0.00041 -6e-05 0.00038 16.18489 -33.52568 -2.96379 55.98324 1.51644 2.32326 -5.17763 -4.78556 -1.1147 128.95031 -72.50578 -86.17047 7.91016 63.81113 2.65658 -8.23348 155.45808 74.434 82.28623 8.34606 -65.14181 5.8843 9.64698 48.99022 -4.65486 -4.05171 -18.9974 -7.97942 -3.8946 -4.20669 52.41331 8.47945 2.71601 -24.10674 -9.11892 3.95518 4.29375
-0.00053 -8e-05 0.00043 16.22535 -33.5019 -2.94887 55.97562 1.44479 2.31705 -5.27664 -4.49332 -1.11801 128.76135 -72.50323 -86.31834 7.91969 63.89777 2.66885 -8.19991 155.50444 74.39663 82.50445 8.34843 -65.1549 5.96366 9.5931 48.96518 -4.77177 -4.67969 -19.00219 -7.93113 -3.85309 -4.18243 52.40374 8.52325 2.98038 -24.10782 -9.09615 3.93683 4.28223
-0.00065 -9e-05 0.00049 16.26497 -33.47808 -2.93392 55.96767 1.37388 2.31121 -5.37531 -4.20356 -1.12132 128.57295 -72.50093 -86.46457 7.9277 63.98247 2.67908 -8.16691 155.55105 74.36009 82.71722 8.35149 -65.16549 6.04186 9.54095 48.94035 -4.88764 -5.30118 -19.00699 -7.88338 -3.81196 -4.15837 52.3939 8.56758 3.24743 -24.1089 -9.07324 3.91838 4.27063
-0.00077 -0.00011 0.00054 16.30944 -33.45467 -2.91922 55.96177 1.2985 2.30324 -5.47596 -3.89865 -1.12463 128.39295 -72.49549 -86.62096 7.94561 64.07799 2.70147 -8.13208 155.60634 74.31556 82.95549 8.35269 -65.17417 6.13119 9.47972 48.91451 -5.00953 -5.96052 -19.01174 -7.83253 -3.76863 -4.13306 52.38582 8.60875 3.49839 -24.10992 -9.05115 3.90056 4.25953
-0.00089 -0.00013 0.00059 16.3437 -33.43029 -2.90396 55.95147 1.23268 2.29979 -5.57242 -3.62634 -1.12792 128.18785 -72.49774 -86.75542 7.9419 64.15087 2.69795 -8.10018 155.63684 74.28992 83.14369 8.35648 -65.19731 6.19416 9.4371 48.89072 -5.11869 -6.53959 -19.01659 -7.78824 -3.72996 -4.11042 52.37392 8.65663 3.78365 -24.11108 -9.02731 3.88139 4.24734
-0.00102 -0.00015 0.0006 16.34938 -33.40393 -2.88735 55.92952 1.19247 2.30885 -5.65723 -3.43911 -1.13128 127.96471 -72.51255 -86.8315 7.8843 64.16088 2.62317 -8.08357 155.6371 74.30061 83.15937 8.37823 -65.1711 6.20515 9.44913 48.87332 -5.19299 -6.90032 -19.02173 -7.76182 -3.7039 -4.09504 52.35228 8.72267 4.16063 -24.11257 -8.99868 3.85872 4.23225
-0.00116 -0.00017 0.00061 16.3449 -33.37645 -2.87012 55.90306 1.16198 2.32254 -5.73781 -3.28543 -1.13462 127.70092 -72.53667 -86.88398 7.80404 64.14926 2.52141 -8.06826 155.59541 74.33352 83.12912 8.40055 -65.17329 6.18406 9.47821 48.85789 -5.25453 -7.18031 -19.02699 -7.74197 -3.6825 -4.08235 52.3267 8.79537 4.57194 -24.11424 -8.96831 3.83469 4.21606
-0.0013 -0.00019 0.00062 16.3454 -33.34903 -2.85309 55.87845 1.12748 2.33394 -5.82048 -3.11926 -1.13791 127.43022 -72.56214 -86.94767 7.73047 64.14674 2.43337 -8.04798 155.56106 74.3659 83.1456 8.41556 -65.22398 6.16672 9.49836 48.84102 -5.32178 -7.49572 -19.03209 -7.71923 -3.65911 -4.06851 52.30239 8.86536 4.96988 -24.11586 -8.9387 3.81112 4.2003
-0.00143 -0.00021 0.00063 16.34432 -33.3235 -2.83648 55.85481 1.09132 2.34575 -5.90261 -2.94152 -1.14142 127.29136 -72.56411 -87.01436 7.67175 64.14319 2.34318 -8.04739 155.61744 74.35636 83.06173 8.46042 -65.02633 6.20263 9.52749 48.82631 -5.38918 -7.8155 -19.03747 -7.69622 -3.63531 -4.05442 52.2801 8.93456 5.36088 -24.11726 -8.90913 3.7881 4.18477
-0.00157 -0.00024 0.00063 16.34418 -33.29375 -2.81873 55.82792 1.06088 2.35827 -5.98463 -2.79585 -1.14447 126.83724 -72.61716 -87.06281 7.57717 64.14177 2.24596 -8.00461 155.42311 74.44137 83.16479 8.44311 -65.33906 6.1105 9.537 48.80775 -5.45352 -8.1081 -19.0425 -7.67518 -3.61333 -4.04141 52.25287 9.00631 5.77147 -24.11924 -8.87917 3.76374 4.16858
-0.00173 -0.00027 0.00062 16.34874 -33.25277 -2.79934 55.7943 1.04424 2.36799 -6.06876 -2.73021 -1.14623 125.78376 -72.80674 -87.092 7.38561 64.10149 2.17794 -7.8557 154.98632 74.76052 83.86096 8.25561 -67.16829 5.75806 9.52797 48.77678 -5.50995 -8.33556 -19.04504 -7.65926 -3.59647 -4.03129 52.2113 9.08954 6.25355 -24.12205 -8.84753 3.73503 4.14989
-0.00189 -0.00032 0.00061 16.35459 -33.20761 -2.77865 55.75725 1.03302 2.37912 -6.15218 -2.69563 -1.14752 124.36301 -73.04581 -87.07862 7.15952 64.06895 2.09459 -7.66099 154.2144 75.17473 84.71343 8.00551 -69.48702 5.26478 9.48956 48.74225 -5.56408 -8.53966 -19.04757 -7.64487 -3.58106 -4.02206 52.16526 9.17415 6.74963 -24.12558 -8.81567 3.70517 4.1307
-0.00206 -0.00037 0.0006 16.36023 -33.16417 -2.75757 55.7212 1.01897 2.39173 -6.23569 -2.64717 -1.14902 122.94242 -73.26626 -87.09385 6.95138 64.07144 1.99239 -7.4819 153.31044 75.5638 85.47813 7.78265 -71.50907 4.77642 9.44049 48.71006 -5.62116 -8.76178 -19.05103 -7.62891 -3.56416 -4.01205 52.12227 9.25389 7.22203 -24.12927 -8.78469 3.67654 4.11239
-0.00221 -0.0004 0.00058 16.36431 -33.12117 -2.74029 55.68784 1.00654 2.39481 -6.32213 -2.59934 -1.15051 122.23516 -73.47897 -87.15244 6.7324 63.92898 2.00373 -7.33016 153.61445 75.89118 86.39869 7.56374 -73.85291 4.52477 9.49992 48.67436 -5.67036 -8.95256 -19.05038 -7.61681 -3.55091 -4.0037 52.07462 9.35098 7.76757 -24.13088 -8.75067 3.64502 4.09143
-0.00239 -0.00048 0.00058 16.37163 -33.07661 -2.71521 55.64751 0.99225 2.41896 -6.39971 -2.55656 -1.15193 119.94195 -73.70903 -87.00647 6.52872 64.06727 1.76845 -7.10383 151.31212 76.35203 86.92346 7.3232 -75.63304 3.76162 9.31799 48.64578 -5.73482 -9.20071 -19.05856 -7.59702 -3.53037 -3.99206 52.03595 9.41316 8.1651 -24.13699 -8.72254 3.61907 4.07569
-0.00264 -0.00067 0.00063 16.39172 -33.02581 -2.66531 55.59339 0.96812 2.49242 -6.47537 -2.5249 -1.15319 113.48641 -74.05826 -87.25507 6.37053 65.19401 0.91905 -6.74566 142.00737 77.30119 87.3041 7.02555 -75.81957 1.49238 8.55215 48.63165 -5.84869 -9.64282 -19.08869 -7.55498 -3.48928 -3.97115 52.02075 9.36991 8.13748 -24.15549 -8.71432 3.61044 4.07612
